# xmcd
#
# Track frame offsets:
#	150
#	37665
#	70496
#	107918
#	152934
#	155768
#	185768
#	217115
#
# Disc length: 3125 seconds
#
# Revision: 1
# Processed by: cddbd v1.5.2PL0 Copyright (c) Steve Scherf et al.
# Submitted via: audiograbber 1.83.01
#
DISCID=750c3308
DTITLE=Grateful Dead - 90-02-26 Oakland Coliseum Arena, Oakland CA
DYEAR=1900
DGENRE=
TTITLE0=Hell In A Bucket
TTITLE1=Peggy-O
TTITLE2=Walkin' Blues
TTITLE3=Ramble On Rose
TTITLE4=Stage Banter
TTITLE5=Tom Thumb's Blues
TTITLE6=The Music Never Stopped
TTITLE7=Don't Ease Me In
EXTD=
EXTT0=
EXTT1=
EXTT2=
EXTT3=
EXTT4=
EXTT5=
EXTT6=
EXTT7=
PLAYORDER=
